<svg xmlns="http://www.w3.org/2000/svg" width="71.108" height="53.672" viewBox="0 0 71.108 53.672">
  <g id="Groupe_8539" data-name="Groupe 8539" transform="translate(2.025 -0.478)">
    <g id="Groupe_8537" data-name="Groupe 8537" transform="translate(-0.925 25.48)">
      <path id="Path_5005" data-name="Path 5005" d="M228.539,518.858a6.532,6.532,0,0,1-2.271-.407c-.649-.24-1.22-.459-1.771-.67a46.186,46.186,0,0,0-6.962-2.182,30.152,30.152,0,0,0-6.853-1.106,13.694,13.694,0,0,0-6.088,1.466l-.739.354-.287-.768c-1.793-4.8-3.473-9.3-5.195-13.9l-1.205-3.225.589-.306c1.08-.562,2.171-1.136,3.226-1.691,2.977-1.567,6.056-3.187,9.128-4.662a3.438,3.438,0,0,1,1.494-.3,7.733,7.733,0,0,1,2.05.32c3.676,1.031,7.393,2.147,10.987,3.226q1.594.479,3.188.956a9.865,9.865,0,0,1,1.381.5,5.152,5.152,0,0,1,2.455,2.152,3.947,3.947,0,0,1,.258,3.035,4.314,4.314,0,0,1-4.213,3.273q-.093,0-.187,0c1.482.41,2.928.8,4.353,1.166a1.271,1.271,0,0,0,.316.035,5.636,5.636,0,0,0,1.369-.265l.209-.057c3.618-.979,6.277-1.565,9.092-2.186,2.35-.518,4.779-1.054,7.861-1.847l.238-.063a7.053,7.053,0,0,1,1.788-.31,2.016,2.016,0,0,1,2.012,1.217c.643,1.514-.354,3.134-1.082,4.316l-.116.189a5.458,5.458,0,0,1-2.5,1.807c-.133.062-.264.124-.391.185-2.658,1.289-4.981,2.4-7.229,3.474-3.285,1.57-6.388,3.053-10.219,4.942A10.192,10.192,0,0,1,228.539,518.858Zm-17.857-5.866a31.206,31.206,0,0,1,7.2,1.147,47.435,47.435,0,0,1,7.154,2.242c.547.21,1.113.427,1.754.664a4.968,4.968,0,0,0,1.751.315,9.087,9.087,0,0,0,4.028-1.18c3.839-1.892,6.946-3.377,10.235-4.949,2.245-1.073,4.567-2.183,7.221-3.47.133-.064.27-.129.409-.194a4.508,4.508,0,0,0,1.852-1.231l.119-.193c.557-.9,1.319-2.143.979-2.943-.051-.121-.129-.3-.632-.3a5.937,5.937,0,0,0-1.4.259l-.253.067c-3.107.8-5.55,1.338-7.912,1.859-2.8.617-5.44,1.2-9.024,2.169l-.2.055a6.8,6.8,0,0,1-1.767.319,2.764,2.764,0,0,1-.691-.083c-2.438-.63-4.94-1.316-7.569-2.075l.059.043-3.737-1.127h0a.768.768,0,0,1-.278.052,1,1,0,0,1-.911-.8,1.637,1.637,0,0,1-.164-.4l-.6-1.015.6.182.014-.047a1.157,1.157,0,0,1,1.1-.832c.028,0,.057,0,.086,0a4.718,4.718,0,0,1,1.119.248c.114.036.222.07.33.1.561.155,1.129.32,1.677.479,1.216.354,2.473.719,3.714.987a3.652,3.652,0,0,0,.768.085,2.828,2.828,0,0,0,2.773-2.2c.534-1.822-.745-2.859-1.912-3.408a8.5,8.5,0,0,0-1.172-.425q-1.6-.477-3.191-.956c-3.588-1.077-7.3-2.192-10.961-3.219a6.352,6.352,0,0,0-1.645-.265,1.978,1.978,0,0,0-.845.152c-3.048,1.464-6.114,3.077-9.079,4.637-.865.455-1.755.923-2.644,1.388l.741,1.983c1.632,4.366,3.226,8.632,4.914,13.151A14.8,14.8,0,0,1,210.681,512.992Z" transform="translate(-184.96 -492.206)" fill="#111820"/>
      <path id="Path_5007" data-name="Path 5007" d="M184.455,524.623l-11.383-19.458,14.158-5.2,7.675,20.819Zm-9.183-18.667,9.844,16.827,7.862-2.885-6.638-18Z" transform="translate(-174.172 -495.953)" fill="#111820"/>
      <path id="Tracé_5601" data-name="Tracé 5601" d="M1.75-.021A1.769,1.769,0,1,1-.02,1.747,1.774,1.774,0,0,1,1.75-.021Z" transform="translate(11.412 22.735) rotate(-22.5)" fill="#111820"/>
    </g>
    <path id="Ellipse_4710" data-name="Ellipse 4710" d="M12.5,1.5A11,11,0,0,0,4.722,20.278,11,11,0,1,0,20.278,4.722,10.928,10.928,0,0,0,12.5,1.5m0-1.5A12.5,12.5,0,1,1,0,12.5,12.5,12.5,0,0,1,12.5,0Z" transform="translate(37.382 0.479)" fill="#111820"/>
    <text id="_" data-name="$" transform="translate(50.382 19.478)" fill="#111820" font-size="18" font-family="OpenSans-Semibold, Open Sans" font-weight="600"><tspan x="-5.137" y="0">$</tspan></text>
  </g>
</svg>
