<svg xmlns="http://www.w3.org/2000/svg" width="41.242" height="56.375" viewBox="0 0 41.242 56.375">
  <g id="Group_8153" data-name="Group 8153" transform="translate(0.1 0.1)">
    <g id="组_1525" data-name="组 1525" transform="translate(0 8.361)">
      <g id="椭圆_4707" data-name="椭圆 4707" transform="translate(0 0)">
        <path id="Ellipse_4708" data-name="Ellipse 4708" d="M18.948-.75A19.7,19.7,0,0,1,26.615,37.1,19.7,19.7,0,0,1,11.28.8,19.575,19.575,0,0,1,18.948-.75Zm0,37.937a18.245,18.245,0,0,0,7.1-35.046,18.245,18.245,0,0,0-14.2,33.613A18.125,18.125,0,0,0,18.948,37.187Z" transform="translate(0.75 0.75)" fill="#111820"/>
        <path id="Ellipse_4708_-_Outline" data-name="Ellipse 4708 - Outline" d="M18.948-.85a19.8,19.8,0,0,1,7.706,38.039A19.8,19.8,0,0,1,11.241.706,19.675,19.675,0,0,1,18.948-.85Zm0,39.4A19.6,19.6,0,0,0,26.576.89,19.6,19.6,0,0,0,11.319,37,19.476,19.476,0,0,0,18.948,38.545Zm0-37.937a18.345,18.345,0,0,1,7.138,35.238,18.345,18.345,0,0,1-14.277-33.8A18.224,18.224,0,0,1,18.948.608Zm0,36.479A18.145,18.145,0,0,0,26.008,2.233,18.145,18.145,0,0,0,11.887,35.662,18.025,18.025,0,0,0,18.948,37.087Z" transform="translate(0.75 0.75)" fill="#0e2240"/>
      </g>
      <path id="直线_277" data-name="直线 277" d="M.708,2.629H-.75V0H.708Z" transform="translate(19.67 6.947)" fill="#111820"/>
      <path id="直线_277_-_Outline" data-name="直线 277 - Outline" d="M.808,2.729H-.85V-.1H.808Zm-1.458-.2H.608V.1H-.65Z" transform="translate(19.67 6.947)" fill="#0e2240"/>
      <path id="直线_278" data-name="直线 278" d="M.708,2.677H-.75V0H.708Z" transform="translate(19.672 29.847)" fill="#111820"/>
      <path id="直线_278_-_Outline" data-name="直线 278 - Outline" d="M.808,2.777H-.85V-.1H.808Zm-1.458-.2H.608V.1H-.65Z" transform="translate(19.672 29.847)" fill="#0e2240"/>
      <path id="直线_279" data-name="直线 279" d="M2.76.708H0V-.75H2.76Z" transform="translate(30.126 19.73)" fill="#111820"/>
      <path id="直线_279_-_Outline" data-name="直线 279 - Outline" d="M2.86.808H-.1V-.85H2.86ZM.1.608H2.66V-.65H.1Z" transform="translate(30.126 19.73)" fill="#0e2240"/>
      <path id="直线_280" data-name="直线 280" d="M3.347.708H0V-.75H3.347Z" transform="translate(6.509 19.73)" fill="#111820"/>
      <path id="直线_280_-_Outline" data-name="直线 280 - Outline" d="M3.447.808H-.1V-.85H3.447ZM.1.608H3.247V-.65H.1Z" transform="translate(6.509 19.73)" fill="#0e2240"/>
      <path id="直线_281" data-name="直线 281" d="M.552,2.2-.585,1.289.829-.47,1.965.443Z" transform="translate(27.44 10.534)" fill="#111820"/>
      <path id="直线_281_-_Outline" data-name="直线 281 - Outline" d="M.567,2.343-.725,1.3.814-.61,2.106.428ZM-.444,1.274l.981.788L1.825.459.844-.329Z" transform="translate(27.44 10.534)" fill="#0e2240"/>
      <path id="直线_282" data-name="直线 282" d="M.536,2.892l-1.1-.953L1.529-.49l1.1.953Z" transform="translate(10.478 26.483)" fill="#111820"/>
      <path id="直线_282_-_Outline" data-name="直线 282 - Outline" d="M.546,3.033-.709,1.95,1.518-.631,2.774.452Zm-.973-1.1.952.822L2.492.473,1.539-.349Z" transform="translate(10.478 26.483)" fill="#0e2240"/>
      <path id="直线_283" data-name="直线 283" d="M1.381,2.273-.51.519.481-.55,2.372,1.2Z" transform="translate(26.762 27.159)" fill="#111820"/>
      <path id="直线_283_-_Outline" data-name="直线 283 - Outline" d="M1.386,2.414-.651.524.476-.691,2.514,1.2ZM-.369.514,1.375,2.132l.855-.922L.487-.409Z" transform="translate(26.762 27.159)" fill="#0e2240"/>
      <path id="直线_284" data-name="直线 284" d="M1.1,2.242-.548.484l1.065-1L2.162,1.247Z" transform="translate(10.254 10.535)" fill="#111820"/>
      <path id="直线_284_-_Outline" data-name="直线 284 - Outline" d="M1.092,2.384-.689.479.522-.654,2.3,1.251Zm-1.5-1.9L1.1,2.1l.919-.859L.512-.371Z" transform="translate(10.254 10.535)" fill="#0e2240"/>
      <path id="路径_3665" data-name="路径 3665" d="M290.937,422.485l-.046-1.457,6.763-.212.046,1.457Z" transform="translate(-277.83 -401.527)" fill="#111820"/>
      <path id="路径_3665_-_Outline" data-name="路径 3665 - Outline" d="M290.84,422.588l-.052-1.657,6.963-.218.052,1.657Zm.154-1.464.039,1.257,6.563-.205-.039-1.257Z" transform="translate(-277.83 -401.527)" fill="#0e2240"/>
      <path id="路径_3666" data-name="路径 3666" d="M297.767,422.481l-1.031-1.031,6.719-6.719,1.031,1.031Z" transform="translate(-277.798 -401.551)" fill="#111820"/>
      <path id="路径_3666_-_Outline" data-name="路径 3666 - Outline" d="M297.767,422.622l-1.172-1.172,6.86-6.86,1.172,1.172Zm-.89-1.172.89.889,6.578-6.578-.89-.889Z" transform="translate(-277.798 -401.551)" fill="#0e2240"/>
      <g id="椭圆_4707-2" data-name="椭圆 4707-2" transform="translate(3.434 3.434)">
        <path id="Ellipse_4708-2" data-name="Ellipse 4708-2" d="M15.888-.375a16.263,16.263,0,0,1,11.5,27.763,16.263,16.263,0,1,1-23-23A16.157,16.157,0,0,1,15.888-.375Zm0,31.8A15.534,15.534,0,0,0,26.873,4.9,15.534,15.534,0,1,0,4.9,26.873,15.433,15.433,0,0,0,15.888,31.422Z" transform="translate(0.375 0.375)" fill="#111820"/>
        <path id="Ellipse_4708-2_-_Outline" data-name="Ellipse 4708-2 - Outline" d="M15.888-.475A16.363,16.363,0,0,1,27.459,27.459,16.363,16.363,0,1,1,4.318,4.318,16.256,16.256,0,0,1,15.888-.475Zm0,32.526A16.163,16.163,0,0,0,27.317,4.459,16.163,16.163,0,1,0,4.459,27.317,16.057,16.057,0,0,0,15.888,32.051Zm0-31.8A15.634,15.634,0,0,1,26.943,26.943,15.634,15.634,0,1,1,4.833,4.833,15.532,15.532,0,0,1,15.888.254Zm0,31.068A15.434,15.434,0,0,0,26.8,4.975,15.434,15.434,0,1,0,4.975,26.8,15.333,15.333,0,0,0,15.888,31.322Z" transform="translate(0.375 0.375)" fill="#0e2240"/>
      </g>
    </g>
    <path id="Path_3668" data-name="Path 3668" d="M310.017,405.183l-3.125-11.03a41.827,41.827,0,0,0-16.082,0l-3.125,11.03-1.4-.4,3.367-11.882.432-.09a43.264,43.264,0,0,1,17.541,0l.432.09,3.367,11.882Z" transform="translate(-279.153 -391.915)" fill="#111820"/>
    <path id="Path_3668_-_Outline" data-name="Path 3668 - Outline" d="M309.948,405.307l-3.136-11.068a41.731,41.731,0,0,0-15.923,0l-3.136,11.068-1.6-.452.027-.1,3.383-11.941.491-.1a43.364,43.364,0,0,1,17.582,0l.491.1,3.411,12.037Zm-11.1-12.034a41.729,41.729,0,0,1,8.061.782l.06.012,3.115,10.993,1.21-.343-3.323-11.728-.373-.078a43.163,43.163,0,0,0-17.5,0l-.373.078L286.4,404.717l1.21.343,3.115-10.993.06-.012A41.718,41.718,0,0,1,298.85,393.273Z" transform="translate(-279.153 -391.915)" fill="#0e2240"/>
    <path id="Path_3668-2" data-name="Path 3668" d="M298.85,405.727a42.986,42.986,0,0,1-8.77-.9l-.432-.09-3.367-11.883,1.4-.4,3.125,11.031a41.823,41.823,0,0,0,16.083,0l3.125-11.031,1.4.4-3.367,11.883-.432.09A43.017,43.017,0,0,1,298.85,405.727Z" transform="translate(-279.153 -349.552)" fill="#111820"/>
    <path id="Path_3668_-_Outline-2" data-name="Path 3668 - Outline" d="M298.85,405.827a43.1,43.1,0,0,1-8.791-.9l-.491-.1-3.41-12.037,1.6-.452,3.136,11.068a41.727,41.727,0,0,0,15.924,0l3.136-11.068,1.6.452-3.41,12.037-.491.1A43.115,43.115,0,0,1,298.85,405.827Zm-9.123-1.174.373.078a43.165,43.165,0,0,0,17.5,0l.373-.078,3.323-11.728-1.21-.343-3.115,10.994-.06.012a41.923,41.923,0,0,1-16.121,0l-.06-.012-3.115-10.994-1.21.343Z" transform="translate(-279.153 -349.552)" fill="#0e2240"/>
    <path id="Path_3670" data-name="Path 3670" d="M316.074,421.357l.531.649,1.534-.017a9.475,9.475,0,0,0,0-3.036h-1.534l-.531.764" transform="translate(-277.522 -392.636)" fill="#111820"/>
    <path id="Path_3670_-_Outline" data-name="Path 3670 - Outline" d="M316.558,422.107l-.562-.686.155-.127.5.612,1.4-.015a9.37,9.37,0,0,0,0-2.837h-1.4l-.5.721-.164-.114.561-.806h1.671l.014.084a9.572,9.572,0,0,1,0,3.068l-.013.083Z" transform="translate(-277.522 -392.636)" fill="#0e2240"/>
    <path id="Path_3670_-_Outline-2" data-name="Path 3670 - Outline" d="M316.15,421.985l-.662-.771.991-.773.272.317.482,0a6.967,6.967,0,0,0,0-1.327h-.449l-.276.378-1.052-.7.658-.9h2.228l.087.513a8.147,8.147,0,0,1,0,2.738l-.086.507Z" transform="translate(-277.505 -392.615)" fill="#111820"/>
    <path id="Path_3670_-_Outline_-_Outline" data-name="Path 3670 - Outline - Outline" d="M316.1,422.085l-.76-.885,1.149-.9.3.354.345,0a6.9,6.9,0,0,0,0-1.128h-.307l-.3.414-1.219-.808.75-1.027h2.363l.1.6a8.246,8.246,0,0,1,0,2.771l-.1.59Zm-.472-.857.563.656,2.065-.021.072-.425a8.046,8.046,0,0,0,0-2.7l-.073-.43h-2.093l-.566.776.885.587.249-.342h.591l.009.091a7.092,7.092,0,0,1,0,1.347l-.009.09-.619.006-.24-.28Z" transform="translate(-277.505 -392.615)" fill="#0e2240"/>
    <path id="Union_23" data-name="Union 23" d="M.391,3.295.812,2.63.745,2.594l-.4-1.169.085-.251L0,.637,2.128,0l.3.461a5.654,5.654,0,0,1,.825,2.09l.1.514-2.09.645Z" transform="translate(36.936 20.197)" fill="#111820"/>
    <path id="Union_23_-_Outline" data-name="Union 23 - Outline" d="M1.252,3.817.246,3.336.67,2.667l-.007,0L.237,1.426l.078-.232L-.17.584l2.341-.7.341.524a5.743,5.743,0,0,1,.84,2.128l.113.6ZM.536,3.253l.731.35L3.235,3l-.08-.426A5.544,5.544,0,0,0,2.344.515l-.259-.4L.17.691l.369.464-.091.271.378,1.1.127.068Z" transform="translate(36.936 20.197)" fill="#0e2240"/>
    <path id="Union_24" data-name="Union 24" d="M0,3.072l.428-.537L.342,2.281l.4-1.168.42-.23L1.262,0,3.349.643l-.093.517a5.664,5.664,0,0,1-.83,2.087l-.3.461Z" transform="translate(37.391 31.054)" fill="#111820"/>
    <path id="Union_24_-_Outline" data-name="Union 24 - Outline" d="M2.172,3.825l-2.342-.7.486-.61L.236,2.281.662,1.044,1.071.821l.105-.952,2.287.7-.108.6A5.766,5.766,0,0,1,2.51,3.3Zm-2-.807,1.915.572.257-.4a5.567,5.567,0,0,0,.816-2.051l.077-.43L1.348.131l-.09.815-.432.237-.379,1.1.092.273Z" transform="translate(37.391 31.054)" fill="#0e2240"/>
  </g>
</svg>
