<svg xmlns="http://www.w3.org/2000/svg" width="58.288" height="51.856" viewBox="0 0 58.288 51.856">
  <g id="Groupe_8538" data-name="Groupe 8538" transform="translate(0.744 0.109)">
    <g id="Group_8153" data-name="Group 8153" transform="translate(17.182 0)">
      <g id="组_1525" data-name="组 1525" transform="translate(0 3.607)">
        <g id="椭圆_4707" data-name="椭圆 4707" transform="translate(0 0)">
          <path id="Ellipse_4708" data-name="Ellipse 4708" d="M10.956-.5A11.456,11.456,0,1,1-.5,10.956,11.469,11.469,0,0,1,10.956-.5Zm0,21.654a10.2,10.2,0,1,0-10.2-10.2A10.209,10.209,0,0,0,10.956,21.154Z" transform="translate(0.5 0.5)" fill="#111820" stroke="#111820" stroke-width="0.2"/>
        </g>
        <path id="Tracé_5635" data-name="Tracé 5635" d="M0,0V5.611H4.769" transform="translate(7.994 8.073) rotate(-41)" fill="none" stroke="#111820" stroke-width="1.5"/>
      </g>
      <path id="Path_3668" data-name="Path 3668" d="M300.451,398.857l-1.8-5.245a29.4,29.4,0,0,0-9.149,0l-1.8,5.245-1.185-.315,2.012-5.876.366-.063a30.771,30.771,0,0,1,10.355,0l.366.063,2.012,5.876Z" transform="translate(-282.693 -392.164)" fill="#111820" stroke="#111820" stroke-width="0.2"/>
      <path id="Path_3668-2" data-name="Path 3668" d="M294.08,399.378a29.784,29.784,0,0,1-5.177-.45l-.366-.065-2.012-6.023,1.185-.323,1.8,5.375a28.7,28.7,0,0,0,9.149,0l1.8-5.375,1.185.323-2.012,6.023-.366.065A29.792,29.792,0,0,1,294.08,399.378Z" transform="translate(-282.693 -369.062)" fill="#111820" stroke="#111820" stroke-width="0.2"/>
      <path id="Path_3670" data-name="Path 3670" d="M316.314,420.669l.839-.009a5.463,5.463,0,0,0,0-1.705h-.839" transform="translate(-294.307 -404.749)" fill="#111820" stroke="#111820" stroke-miterlimit="10" stroke-width="0.2"/>
      <path id="Path_3670_-_Outline" data-name="Path 3670 - Outline" d="M316.322,421.406l-.014-1.238.288,0q.012-.237,0-.474h-.282v-1.238h1.368l.082.522a6.078,6.078,0,0,1,0,1.9l-.082.516Z" transform="translate(-293.849 -405.486)" fill="#111820" stroke="#111820" stroke-width="0.2"/>
    </g>
    <path id="Tracé_5633" data-name="Tracé 5633" d="M10.071,31.83l9.4-8.514s.943-2.291-.436-3.418-2.939-.812-4.234.4C13.621,21.4,2.286,30.9,1.46,33.472s-.412,14.573-.412,14.573h11.98s-.377-5.861.448-7.492,8.907-8.96,10.217-10.929S24.571,4.605,24.6,3.9,23.81,1.056,22.07,1a3.3,3.3,0,0,0-3.5,2.9c-.216,1.819-1.235,14.364-1.235,14.364" transform="translate(32.154 2.951)" fill="none" stroke="#111820" stroke-width="1.5"/>
    <path id="Tracé_5634" data-name="Tracé 5634" d="M15.52,31.83l-9.4-8.514s-.943-2.291.436-3.418,2.939-.812,4.234.4C11.97,21.4,23.3,30.9,24.131,33.472s.412,14.573.412,14.573H12.563s.377-5.861-.448-7.492S3.208,31.593,1.9,29.624,1.02,4.605.989,3.9,1.781,1.056,3.521,1a3.3,3.3,0,0,1,3.5,2.9C7.233,5.72,8.252,18.265,8.252,18.265" transform="translate(-0.945 2.951)" fill="none" stroke="#111820" stroke-width="1.5"/>
  </g>
</svg>
