<svg id="Desktop_-large" data-name="Desktop -large" xmlns="http://www.w3.org/2000/svg" width="210" height="53.767" viewBox="0 0 210 53.767">
  <path id="Path_5876" data-name="Path 5876" d="M4118.473,662.405h.3V685.33H4114.3V662.405h4.175Zm24.439,14.271h.3v3.937h-2.6v4.568h-3.937v-4.568h-12.92v-3.872l.028-.06,6.431-13.981.08-.174h10.319v14.15Zm-6.237,0v-10.2H4132.8l-4.676,10.2Zm30.295-2.8c0,7.621-3.279,11.486-9.744,11.486s-9.586-3.864-9.586-11.486c0-3.453.542-6.087,1.616-7.828,1.5-2.427,4.184-3.657,7.97-3.657a11.984,11.984,0,0,1,4.9.905,7.146,7.146,0,0,1,3.2,2.751c1.093,1.74,1.647,4.375,1.647,7.829Zm-3.851,0c0-2.925-.43-4.957-1.274-6.038-.829-1.059-2.382-1.6-4.619-1.6-2.068,0-3.515.452-4.3,1.345-.963,1.09-1.451,3.206-1.451,6.29s.5,5.174,1.48,6.272c.808.9,2.245,1.363,4.271,1.363,2.206,0,3.755-.548,4.6-1.626C4162.685,678.78,4163.119,676.759,4163.119,673.875ZM4118.266,692.3l-2.907-3.976h-1.888l4.043,5.521v3.684h1.519v-3.7l4.062-5.5H4121.2Zm8.521,1.272h4.121v-1.519h-4.121v-2.21h5.923v-1.519h-7.443v.6h0v8.609h7.7v-1.525h-6.178v-2.438Zm13.739-5.23,4.25,9.187h-1.65l-1.033-2.226h-4.527l-1.014,2.226H4134.9l4.192-9.187h1.437Zm-.712,2.022-1.562,3.438h3.149Zm13.287,3.293,2.424,3.878h-1.818l-.016-.026-2.286-3.671h-3.1v3.7h-1.538v-9.2h.013v-.013h4.875a3.747,3.747,0,0,1,2.438.742,2.486,2.486,0,0,1,.9,2.022,2.428,2.428,0,0,1-1.89,2.571Zm-1.45-3.789h-3.35V692.3h3.35c1.21,0,1.8-.4,1.8-1.213S4152.86,689.871,4151.65,689.871Zm13.041,2.825a10.835,10.835,0,0,0-2.942-.671l-.552-.07a8.871,8.871,0,0,1-1.818-.351.507.507,0,0,1-.309-.514c0-.859.81-1.3,2.4-1.3a8.136,8.136,0,0,1,3.219.845l.05.023.6-1.338-.049-.023a9.547,9.547,0,0,0-3.823-.975,4.838,4.838,0,0,0-2.648.662,2.357,2.357,0,0,0-1.225,2.1,1.833,1.833,0,0,0,1.039,1.781,8.393,8.393,0,0,0,2.372.538l.578.076a10.188,10.188,0,0,1,2.4.49.864.864,0,0,1,.45.869c0,.8-.922,1.213-2.741,1.213a6.64,6.64,0,0,1-3.6-1.3l-.047-.031-.816,1.221.046.031a8.069,8.069,0,0,0,4.42,1.544,5.764,5.764,0,0,0,3.08-.706,2.4,2.4,0,0,0-.086-4.124Zm-44.88,10.73c0-1.91-1.024-2.878-3.042-2.878s-3.047.968-3.047,2.878,1.025,2.893,3.047,2.893S4119.811,705.346,4119.811,703.426Zm-.992,0a1.984,1.984,0,0,1-.45,1.48,2.359,2.359,0,0,1-1.6.422,2.325,2.325,0,0,1-1.6-.43,1.957,1.957,0,0,1-.457-1.472,1.9,1.9,0,0,1,.463-1.456,2.346,2.346,0,0,1,1.59-.43c1.38,0,2.051.617,2.051,1.887Zm3.778,2.9v-2.413h2.606v-1.034H4122.6v-1.3h3.73v-1.038h-4.76l0,5.787h1.034Zm9.344,0v-2.413h2.6v-1.034h-2.6v-1.3h3.729v-1.038h-4.759l0,5.787h1.035Zm6.6-.008v-5.771h-1.051v5.771Zm7.755,0-1.508-2.413a1.531,1.531,0,0,0,1.145-1.613,1.577,1.577,0,0,0-.571-1.281,2.36,2.36,0,0,0-1.535-.468h-3.062v5.775h1.036v-2.284h1.851l1.421,2.284ZM4141.8,703v-1.418h2.027c.718,0,1.067.233,1.067.711s-.349.707-1.067.707Zm10.332,2.868a1.524,1.524,0,0,0-.058-2.621,6.589,6.589,0,0,0-1.83-.419l-.341-.043a5.528,5.528,0,0,1-1.111-.213.273.273,0,0,1-.167-.279c0-.51.472-.758,1.444-.758a4.991,4.991,0,0,1,1.971.518l.069.032.407-.9-.069-.032a5.932,5.932,0,0,0-2.378-.606,3.035,3.035,0,0,0-1.658.415,1.5,1.5,0,0,0-.776,1.334,1.173,1.173,0,0,0,.664,1.138,5.147,5.147,0,0,0,1.479.337l.355.047a6.282,6.282,0,0,1,1.47.3.5.5,0,0,1,.254.5c0,.469-.556.707-1.65.707a4.063,4.063,0,0,1-2.2-.794l-.063-.042-.551.825.064.042a5.018,5.018,0,0,0,2.752.961,3.6,3.6,0,0,0,1.926-.443Zm4.995.451v-4.736h2.213v-1.031h-5.467v1.031h2.222v4.736Zm7.813-.451a1.524,1.524,0,0,0-.057-2.621,6.579,6.579,0,0,0-1.831-.419l-.34-.043a5.543,5.543,0,0,1-1.112-.213.273.273,0,0,1-.167-.279c0-.51.473-.758,1.444-.758a4.987,4.987,0,0,1,1.971.518l.069.032.408-.9-.07-.032a5.936,5.936,0,0,0-2.378-.606,3.029,3.029,0,0,0-1.657.415,1.494,1.494,0,0,0-.777,1.334,1.171,1.171,0,0,0,.666,1.138,5.121,5.121,0,0,0,1.479.337l.355.047a6.3,6.3,0,0,1,1.469.3.5.5,0,0,1,.254.5c0,.469-.557.707-1.651.707a4.068,4.068,0,0,1-2.2-.794l-.064-.042-.551.825.064.042a5.021,5.021,0,0,0,2.753.961,3.6,3.6,0,0,0,1.926-.443Z" transform="translate(-3956.97 -657.963)"/>
  <g id="Artwork_8" transform="translate(0 0.481)">
    <path id="Path_5877" data-name="Path 5877" d="M2424.149,1103.451l-6.626-7.393-.18-.2H2415.8v11.149h1.967v-7.724L2424.7,1107h1.414V1095.85h-1.967Z" transform="translate(-2336.011 -1072.318)"/>
    <path id="Path_5878" data-name="Path 5878" d="M2001.927,1096.08h-1.967v11.152h8.685v-1.883h-6.718Z" transform="translate(-1938.962 -1072.537)"/>
    <rect id="Rectangle_25364" data-name="Rectangle 25364" width="1.967" height="11.149" transform="translate(72.871 23.543)"/>
    <path id="Path_5879" data-name="Path 5879" d="M2726.01,1096.484v1.8h3.276v2.186c-1.091.785-3.447.651-3.447.651-2.175,0-4.182-.93-4.182-3.712a3.912,3.912,0,0,1,4.182-4.014,7.1,7.1,0,0,1,3.637.875l.809-1.739a9.115,9.115,0,0,0-4.447-1.018c-3.749,0-6.15,2.177-6.15,5.9s2.622,5.593,6.15,5.593c3.812,0,5.414-1.468,5.414-1.581v-4.934h-5.243Z" transform="translate(-2626.17 -1068.174)"/>
    <path id="Path_5880" data-name="Path 5880" d="M659.2,1101.045a2.423,2.423,0,0,0,.981-2.16c0-2.247-1.213-3.115-3.817-3.115H650.05v11.154h7.04c3.028,0,3.711-1.662,3.711-3.418a2.664,2.664,0,0,0-1.6-2.461m-7.225-3.514h4.313c1.189,0,1.951.476,1.951,1.4a1.351,1.351,0,0,1-1.509,1.5h-4.755v-2.9Zm5.115,7.631h-5.115v-2.968h4.849c1.058,0,1.967.232,1.967,1.495s-1.071,1.473-1.7,1.473" transform="translate(-650.05 -1072.241)"/>
    <path id="Path_5881" data-name="Path 5881" d="M978.34,1099.343c0-2.673-2.079-3.253-4.013-3.253H968.16v11.149h1.967v-4.594h2.918l2.876,4.586h2.321l-2.985-4.585a3.092,3.092,0,0,0,3.081-3.3m-8.211,1.5v-2.961h4.226c.745,0,2.025.2,2.025,1.611,0,1.189-1.164,1.351-2.037,1.351h-4.213" transform="translate(-953.785 -1072.547)"/>
    <path id="Path_5882" data-name="Path 5882" d="M1278.647,1102.473h5.39v-1.8h-5.39v-2.8h7.429v-1.881h-9.4v11.141h9.407v-1.882h-7.44Z" transform="translate(-1248.365 -1072.451)"/>
    <rect id="Rectangle_25365" data-name="Rectangle 25365" width="1.967" height="11.138" transform="translate(41.337 23.542)"/>
    <path id="Path_5883" data-name="Path 5883" d="M1688.91,1097.871h4.155v9.269h1.967v-9.269h4.154v-1.881H1688.91Z" transform="translate(-1641.967 -1072.451)"/>
    <path id="Path_5884" data-name="Path 5884" d="M1607.848,577.706c-1.278-.605-3.087-.3-4.737.3l0-.006a6.576,6.576,0,0,0-.226-2.93L1601,575.6a15.023,15.023,0,0,1,.125,3.351h0c-4.887,2.827-8.18,7.556-9.089,10.736-.99,3.464,1.771,4.641,4.094,2.936,5.735-4.209,6.9-13.787,6.9-13.787a4.087,4.087,0,0,1,3.914.452c2.032,1.75-.605,4.44-.605,4.44a3.068,3.068,0,0,0-1.964-.912c-2.054-.185-3.1,2.282-.371,2.546a5.882,5.882,0,0,0,2.114-.352c.456.844.318,4.753-2.321,5.909-2.37,1.038-3.25-.419-3.25-.419a7.2,7.2,0,0,0-1.2,1.732,3.5,3.5,0,0,0,4.009,1.07,6.151,6.151,0,0,0,3.773-3.887,5.637,5.637,0,0,0-.1-4.782c3.61-2.521,3.08-5.948.82-6.922m-12.508,14.229c-2.008.538-1.475-3.868,1.073-7.387,2.6-3.586,4.634-4.663,4.634-4.663-.44,5.236-3.568,11.477-5.706,12.049m8.068-7.548c-.581-.358-.01-.893.531-.893a2.821,2.821,0,0,1,1.656.755s-1.5.561-2.187.138" transform="translate(-1549.276 -575.07)"/>
    <rect id="Rectangle_25366" data-name="Rectangle 25366" width="1.586" height="8.196" transform="translate(38.554 40.34)"/>
    <path id="Path_5885" data-name="Path 5885" d="M1775.315,1467.053l-.188-.137.17-.16a2.062,2.062,0,0,0,.662-1.307,1.965,1.965,0,0,0-.5-1.561,4.917,4.917,0,0,0-5.914,0,1.966,1.966,0,0,0-.5,1.561,2.069,2.069,0,0,0,.66,1.3l.17.16-.188.137a2.285,2.285,0,0,0-.356.31,2.221,2.221,0,0,0-.555,1.742c.1,1.141,1.128,2.361,3.716,2.361h.007c2.589,0,3.618-1.22,3.718-2.362a2.222,2.222,0,0,0-.554-1.741,2.321,2.321,0,0,0-.352-.308m-.78-1.752c-.046.446-.692.9-2.031.9s-1.982-.45-2.029-.895a.549.549,0,0,1,.135-.456,3.746,3.746,0,0,1,3.79,0,.541.541,0,0,1,.135.454m-4.145,3.027a3.093,3.093,0,0,1,2.113-.558,3.4,3.4,0,0,1,2.108.559.786.786,0,0,1,.183.65c-.068.778-1.231,1.054-2.3,1.054s-2.223-.276-2.29-1.054a.783.783,0,0,1,.182-.65" transform="translate(-1718.219 -1422.781)"/>
    <path id="Path_5886" data-name="Path 5886" d="M1965.064,1472.941v-5.112h-3.735l-2.348,5.115-.01,1.428h4.661v1.648h1.432v-1.648H1966v-1.432Zm-4.507,0,1.686-3.67h1.389v3.67Z" transform="translate(-1899.824 -1427.489)"/>
    <path id="Path_5887" data-name="Path 5887" d="M1585.128,1467.053l-.188-.137.17-.16a2.059,2.059,0,0,0,.662-1.307,1.964,1.964,0,0,0-.5-1.561,4.919,4.919,0,0,0-5.915,0,1.967,1.967,0,0,0-.5,1.561,2.062,2.062,0,0,0,.659,1.3l.169.16-.188.137a2.3,2.3,0,0,0-.356.31,2.214,2.214,0,0,0-.554,1.742c.1,1.142,1.125,2.362,3.716,2.362h.007c2.589,0,3.617-1.22,3.717-2.362a2.223,2.223,0,0,0-.554-1.742,2.3,2.3,0,0,0-.352-.308m-.779-1.753c-.047.446-.693.9-2.031.9s-1.983-.45-2.03-.895a.547.547,0,0,1,.135-.456,3.746,3.746,0,0,1,3.789,0,.538.538,0,0,1,.137.454m-4.146,3.028a3.052,3.052,0,0,1,2.116-.559,3.406,3.406,0,0,1,2.108.559.79.79,0,0,1,.183.651c-.067.778-1.231,1.054-2.3,1.054s-2.224-.276-2.291-1.054a.788.788,0,0,1,.182-.65" transform="translate(-1536.627 -1422.781)"/>
  </g>
  <rect id="Rectangle_25367" data-name="Rectangle 25367" width="0.452" height="53.767" transform="translate(130.99 0)"/>
</svg>
